<svg width="48" height="48" viewBox="0 0 48 48" fill="none" xmlns="http://www.w3.org/2000/svg">
<rect width="48" height="48" rx="12" fill="#FDF5F3"/>
<path d="M19.816 29.5V28.972C19.816 28.492 19.9013 28.0547 20.072 27.66C20.2427 27.2653 20.472 26.908 20.76 26.588C21.048 26.2573 21.368 25.948 21.72 25.66C22.0827 25.3613 22.4453 25.0787 22.808 24.812C23.256 24.4813 23.6773 24.1507 24.072 23.82C24.4667 23.4787 24.7867 23.116 25.032 22.732C25.2773 22.3373 25.4 21.9 25.4 21.42C25.4 21.196 25.3467 20.972 25.24 20.748C25.1333 20.524 24.9573 20.3373 24.712 20.188C24.4773 20.0387 24.1573 19.964 23.752 19.964C23.3467 19.964 23.0107 20.0333 22.744 20.172C22.4773 20.3 22.2747 20.4867 22.136 20.732C22.008 20.9773 21.944 21.2813 21.944 21.644V22.3H19.992C19.9813 22.2467 19.9707 22.1667 19.96 22.06C19.9493 21.9533 19.944 21.82 19.944 21.66C19.944 20.8707 20.12 20.236 20.472 19.756C20.8347 19.2653 21.3093 18.908 21.896 18.684C22.4933 18.4493 23.1387 18.332 23.832 18.332C24.5573 18.332 25.1493 18.4387 25.608 18.652C26.0773 18.8653 26.44 19.1373 26.696 19.468C26.9627 19.7987 27.144 20.1507 27.24 20.524C27.3467 20.8973 27.4 21.2387 27.4 21.548C27.4 22.06 27.3093 22.5293 27.128 22.956C26.9573 23.372 26.7173 23.7667 26.408 24.14C26.0987 24.5027 25.7307 24.8547 25.304 25.196C24.888 25.5267 24.44 25.8627 23.96 26.204C23.7147 26.3747 23.4747 26.5453 23.24 26.716C23.0053 26.8867 22.7973 27.0573 22.616 27.228C22.4453 27.3987 22.312 27.5693 22.216 27.74H27.464V29.5H19.816Z" fill="#003E29"/>
</svg>
