<svg width="48" height="48" viewBox="0 0 48 48" fill="none" xmlns="http://www.w3.org/2000/svg">
<rect width="48" height="48" rx="12" fill="#FDF5F3"/>
<path d="M23.64 29.692C22.7973 29.692 22.0827 29.5587 21.496 29.292C20.9093 29.0147 20.4613 28.6307 20.152 28.14C19.8533 27.6387 19.704 27.0573 19.704 26.396V26.156H21.688V26.444C21.688 26.9773 21.8533 27.388 22.184 27.676C22.5147 27.9533 22.9787 28.092 23.576 28.092C24.1413 28.092 24.5947 27.9587 24.936 27.692C25.2773 27.4253 25.448 26.9987 25.448 26.412C25.448 25.9533 25.352 25.6067 25.16 25.372C24.9787 25.1267 24.7333 24.956 24.424 24.86C24.1253 24.764 23.8 24.716 23.448 24.716H22.536V23.116H23.496C23.816 23.116 24.104 23.0573 24.36 22.94C24.6267 22.8227 24.8347 22.6413 24.984 22.396C25.144 22.1507 25.224 21.8413 25.224 21.468C25.224 21.1053 25.1547 20.812 25.016 20.588C24.8773 20.364 24.6853 20.1987 24.44 20.092C24.1947 19.9853 23.9173 19.932 23.608 19.932C23.2773 19.932 22.984 19.9907 22.728 20.108C22.472 20.2147 22.2747 20.3853 22.136 20.62C21.9973 20.844 21.928 21.132 21.928 21.484V21.74H19.944V21.34C19.944 20.732 20.0987 20.204 20.408 19.756C20.7173 19.2973 21.144 18.9453 21.688 18.7C22.2427 18.4547 22.872 18.332 23.576 18.332C24.3013 18.332 24.936 18.4493 25.48 18.684C26.0347 18.908 26.4667 19.244 26.776 19.692C27.0853 20.14 27.24 20.6893 27.24 21.34C27.24 21.7667 27.16 22.14 27 22.46C26.8507 22.7693 26.6427 23.0307 26.376 23.244C26.1093 23.4573 25.8107 23.644 25.48 23.804V23.868C26.0453 24.0387 26.5147 24.348 26.888 24.796C27.272 25.244 27.464 25.8307 27.464 26.556C27.464 27.2067 27.2987 27.7667 26.968 28.236C26.648 28.7053 26.2 29.068 25.624 29.324C25.048 29.5693 24.3867 29.692 23.64 29.692Z" fill="#003E29"/>
</svg>
