<svg width="48" height="48" viewBox="0 0 48 48" fill="none" xmlns="http://www.w3.org/2000/svg">
<rect width="48" height="48" rx="12" fill="#FDF5F3"/>
<path d="M24.328 29.5V27.052H19.496V25.452C19.9227 24.748 20.3173 24.0227 20.68 23.276C21.0427 22.5293 21.3733 21.7453 21.672 20.924C21.9707 20.1027 22.2267 19.2387 22.44 18.332H24.488C24.3493 18.8973 24.1733 19.4787 23.96 20.076C23.7467 20.6733 23.512 21.2547 23.256 21.82C23 22.3853 22.744 22.9133 22.488 23.404C22.232 23.884 21.992 24.3053 21.768 24.668C21.5547 25.02 21.384 25.2813 21.256 25.452H24.328V22.684C24.424 22.4813 24.52 22.268 24.616 22.044C24.712 21.8093 24.8027 21.5747 24.888 21.34C24.984 21.0947 25.0693 20.86 25.144 20.636C25.2187 20.4013 25.288 20.1773 25.352 19.964H26.28V25.452H27.64V27.052H26.28V29.5H24.328Z" fill="#003E29"/>
</svg>
